PathFileType	4	(X/Y/Z)	output.trc
DataRate	CameraRate	NumFrames	NumMarkers	Units	OrigDataRate	OrigDataStartFrame	OrigNumFrames
250.00	250.00	4	36	m	250.00	850	2266
Frame#	Time	LPSIS_X	LPSIS_Y	LPSIS_Z	LASIS_X	LASIS_Y	LASIS_Z	LTH1_X	LTH1_Y	LTH1_Z	LTH2_X	LTH2_Y	LTH2_Z	LTH3_X	LTH3_Y	LTH3_Z	LTH4_X	LTH4_Y	LTH4_Z	LLFE_X	LLFE_Y	LLFE_Z	LMFE_X	LMFE_Y	LMFE_Z	LSH1_X	LSH1_Y	LSH1_Z	LSH2_X	LSH2_Y	LSH2_Z	LSH3_X	LSH3_Y	LSH3_Z	LSH4_X	LSH4_Y	LSH4_Z	LLMAL_X	LLMAL_Y	LLMAL_Z	LMMAL_X	LMMAL_Y	LMMAL_Z	LCAL_X	LCAL_Y	LCAL_Z	LMTP5_X	LMTP5_Y	LMTP5_Z	LTOE_X	LTOE_Y	LTOE_Z	LMTP1_X	LMTP1_Y	LMTP1_Z	RPSIS_X	RPSIS_Y	RPSIS_Z	RASIS_X	RASIS_Y	RASIS_Z	RTH1_X	RTH1_Y	RTH1_Z	RTH2_X	RTH2_Y	RTH2_Z	RTH3_X	RTH3_Y	RTH3_Z	RTH4_X	RTH4_Y	RTH4_Z	RLFE_X	RLFE_Y	RLFE_Z	RMFE_X	RMFE_Y	RMFE_Z	RSH1_X	RSH1_Y	RSH1_Z	RSH2_X	RSH2_Y	RSH2_Z	RSH3_X	RSH3_Y	RSH3_Z	RSH4_X	RSH4_Y	RSH4_Z	RLMAL_X	RLMAL_Y	RLMAL_Z	RMMAL_X	RMMAL_Y	RMMAL_Z	RCAL_X	RCAL_Y	RCAL_Z	RMTP1_X	RMTP1_Y	RMTP1_Z	RTOE_X	RTOE_Y	RTOE_Z	RMTP5_X	RMTP5_Y	RMTP5_Z

850	3.39600	130.90321	337.59369	1014.00092	295.02957	417.18860	993.23108	289.26132	467.58011	793.47827	328.13693	471.11456	724.96631	367.94580	464.17404	660.51227	397.27072	453.56522	765.18945	392.30508	442.92957	546.07910	404.50299	325.93546	534.21649	284.38861	457.38849	417.26559	244.79855	442.69852	389.64410	319.31613	447.79413	396.91760	290.11407	442.07159	361.67270	135.24278	406.42331	250.28186	174.54976	337.69998	244.22629	56.04969	353.27753	241.27260	171.28748	442.50970	110.64887	224.19498	392.97433	79.94152	194.55753	339.04556	84.40836	137.66890	236.57014	1025.57324	300.79962	162.93790	992.05457	263.81247	108.82974	834.45490	268.80463	115.93026	755.73663	272.20105	130.33263	675.13611	337.94879	149.26125	762.50665	262.95483	171.47813	499.99673	259.42792	283.07941	514.39197	185.21642	169.58487	323.11758	209.64998	170.44353	271.55646	246.52029	171.34767	318.73914	240.48567	177.69547	274.92429	166.59564	226.98024	105.70059	197.31757	302.84244	116.31705	112.94011	276.73129	54.54829	323.12640	299.16876	40.34914	345.96066	249.47404	51.06530	296.29987	191.39206	39.89690
851	3.40000	135.65475	337.69925	1015.00519	300.12109	416.62451	994.26709	295.43091	467.39929	794.79901	334.74536	470.89914	726.54114	375.00522	463.56992	662.36713	403.65964	452.61353	767.18134	399.94452	442.10941	547.90381	411.65158	325.38138	536.25995	293.89160	457.02811	416.66537	254.98549	442.36136	388.23145	329.31866	447.12521	397.01688	300.78711	441.33273	361.15704	148.02487	406.17383	246.56487	187.26424	337.27914	241.55974	68.82881	353.27856	235.42691	187.97285	441.91446	107.69007	241.56013	391.95898	78.76365	211.61072	338.16165	82.58607	142.04594	236.57344	1026.31348	304.74384	162.29874	992.30084	266.35016	108.67265	834.86969	270.71509	115.49735	756.21698	273.51804	129.62111	675.41272	339.70627	148.35855	762.20715	262.96707	171.06801	500.38516	260.30133	282.64233	514.68134	185.03638	169.55730	323.52823	209.24239	170.17531	272.12219	246.47040	170.99745	319.01755	240.14925	177.32059	275.41559	166.55301	226.90578	106.07645	197.35199	302.68958	116.63528	113.01833	276.50314	54.96289	323.19809	299.03067	40.46868	345.82928	249.47147	50.98882	296.28204	191.32976	39.90617
852	3.40400	140.29219	337.72681	1015.89404	304.96130	415.96484	995.16486	300.65897	467.19547	795.94135	341.34390	470.59189	728.01184	381.86487	463.04056	664.18219	409.55026	451.93198	769.02350	407.18701	441.44739	549.74103	418.50357	324.80661	538.06104	303.45789	456.60815	416.02234	265.09448	441.99390	386.66876	339.28091	446.39108	397.16333	311.33813	440.11911	361.44144	160.96970	405.77640	242.68221	200.01231	336.80365	238.79176	81.90510	353.32721	229.41893	204.85254	441.12640	105.08569	259.11151	391.09546	77.83003	228.61324	337.54691	80.78612	146.37094	236.57898	1027.03394	308.86227	161.68341	992.53430	268.81311	108.31588	835.25269	272.57886	115.11442	756.57397	274.86487	129.20854	675.73737	342.69077	147.30402	762.29028	262.98517	170.66350	500.77011	261.31781	282.17590	515.00366	184.84384	169.54559	324.00369	208.86473	169.94868	272.68506	246.05406	170.56017	319.66122	239.91153	176.99515	275.86130	166.52199	226.86285	106.38732	197.27197	302.50064	116.99284	113.11825	276.34430	55.42029	323.22543	298.95169	40.56525	345.71658	249.44174	50.95479	296.26404	191.26224	39.92218
853	3.40800	145.07651	337.84509	1016.69366	309.90012	415.24921	995.94330	307.02353	467.01187	797.30927	347.53305	470.23367	729.36786	388.51123	462.72476	665.83783	415.65750	451.23029	770.86438	414.51093	440.64725	551.34900	425.50406	324.09369	539.90375	313.51837	456.90298	416.25171	274.86157	441.57550	384.74557	349.06235	445.69733	397.10388	322.19351	440.02243	359.90768	174.16658	405.50549	238.70543	212.99786	336.33282	235.89835	95.05135	353.28745	223.32936	221.88853	440.46710	102.26978	276.57111	390.06073	76.64014	246.37480	336.41910	79.26295	150.85423	236.62178	1027.57629	312.56561	160.91373	992.83356	271.46252	107.89047	835.73169	274.50668	114.66667	756.93158	276.10129	128.70862	676.15448	345.04263	146.34785	762.08929	263.05368	170.35397	501.19104	261.83691	282.06210	515.08673	184.54225	169.44537	324.55060	208.68855	169.88527	273.07452	245.77081	170.17737	320.14578	239.69214	176.70200	276.30069	166.49472	226.86362	106.64381	197.07211	302.25986	117.36651	113.23899	276.37894	55.75446	323.25137	298.88428	40.68420	345.66083	249.43475	50.94020	296.25735	191.20444	39.92850
